<svg id="Capa_1" enable-background="new 0 0 511.998 511.998" height="512" viewBox="0 0 511.998 511.998" width="512" xmlns="http://www.w3.org/2000/svg" fill="#B000DC"><g><path d="m235.313 374.01v-165.76c0-4.142-3.358-7.5-7.5-7.5s-7.5 3.358-7.5 7.5v164.499h-129.649s-.004-58.166-.013-58.314c-.532-8.95-7.607-18.416-16.564-30.401-15.013-20.088-24.008-40.532-32.638-63.821-7.63-20.591-14.836-40.041-25.9-63.182-.787-1.644-.132-2.82.556-3.518 1.775-1.801 6.249-2.797 13.018.328 15.052 6.946 20.563 19.488 27.938 35.183 3.984 8.478 6.065 12.825 12.444 16.786 28.419 14.536 43.564 27.729 42.329 54.478-.191 4.138 3.009 7.647 7.146 7.838.118.005.235.008.352.008 3.983 0 7.301-3.135 7.486-7.154 1.491-32.319-16.635-49.297-38.488-62.032 1.5-2.299 2.363-4.917 2.335-7.585v-129.613c0-5.839 4.746-10.59 10.58-10.59 5.294 0 10.548 5.257 10.581 10.619v126.533c0 4.142 3.358 7.5 7.5 7.5s7.5-3.358 7.5-7.5l-.003-162.732c0-5.834 4.746-10.58 10.58-10.58 6.45.605 9.977 4.132 10.58 10.58l.003 162.732c0 4.142 3.358 7.5 7.5 7.5s7.5-3.358 7.5-7.5v-144.648c0-.012-.002-.024-.002-.036.017-5.819 4.755-10.548 10.578-10.548 6.45.608 9.98 4.135 10.59 10.58l-.004 144.652c0 4.142 3.358 7.5 7.5 7.5s7.5-3.358 7.5-7.5v-90.315c0-.029.004-.058.004-.087 0-5.834 4.746-10.58 10.58-10.58 6.448.603 9.975 4.13 10.58 10.58v77.65c0 4.142 3.358 7.5 7.5 7.5s7.5-3.358 7.5-7.5v-77.65c.48-20.41-20.819-30.285-36.16-23.289v-30.961c0-17.674-21.26-30.476-36.651-23.063-3.173-12.595-11.539-19.461-25.098-20.597-14.105 0-25.58 11.475-25.58 25.58v12.856c-3.28-1.491-6.87-2.276-10.58-2.276-14.105 0-25.58 11.479-25.58 25.59v129.176c-.211.22-3.655-5.275-4.958-8.131-7.471-16.37-15.196-33.297-35.299-42.575-13.815-6.376-24.547-2.755-29.985 2.761-5.411 5.489-6.747 13.547-3.405 20.524 10.767 22.52 17.858 41.657 25.366 61.919 9.116 24.601 14.161 44.576 34.688 67.589 6.866 7.697 13.162 17.612 13.592 22.142v58.854c-9.028 3.119-15.532 11.697-15.532 21.771 0 12.699 10.332 23.031 23.031 23.031h5.958v85.687c0 4.142 3.358 7.5 7.5 7.5s7.5-3.358 7.5-7.5v-85.687h102.874v85.687c0 4.142 3.358 7.5 7.5 7.5s7.5-3.358 7.5-7.5v-85.687h5.816c12.699 0 23.031-10.332 23.031-23.031.002-10.072-6.501-18.65-15.527-21.77zm-7.502 29.801h-144.648c-4.428 0-8.031-3.603-8.031-8.031 0-4.425 3.598-8.026 8.022-8.031h.01 144.65.008c4.423.006 8.02 3.606 8.02 8.031 0 4.428-3.603 8.031-8.031 8.031z"/><path d="m508.736 145.623c-6.997-10.362-22.174-10.012-32.147-5.402-8.49 3.922-15.443 9.671-21.267 17.589-5.922 8.09-10.127 16.963-14.578 26.357-1.111 2.344-4.172 6.599-4.42 6.328v-76.245c0-4.142-3.357-7.5-7.5-7.5s-7.5 3.358-7.5 7.5c0 0 .002 77.289.005 77.377.094 2.646 1.045 5.086 2.512 7.197-21.899 12.671-40.171 29.577-38.668 62.153.528 11.442 15.621 10.272 14.984-.691-1.566-26.969 14.025-40.089 42.653-54.632 5.745-3.615 9.575-8.636 11.489-15.063 4.139-8.732 8.047-16.98 13.117-23.908 4.333-5.892 9.247-9.974 15.466-12.846.75-.347 17.066-4.135 13.566 3.196-11.075 23.151-18.287 42.613-25.923 63.216-8.626 23.279-17.62 43.715-32.627 63.792-8.956 11.981-16.029 21.444-16.561 30.393-.01.148-.014 58.315-.014 58.315h-48.48c-4.143 0-7.5 3.358-7.5 7.5s3.357 7.5 7.5 7.5h55.98c4.892.461 7.569 3.138 8.029 8.03 0 4.428-3.602 8.03-8.029 8.03h-144.65c-4.892-.462-7.568-3.139-8.03-8.03 0-4.428 3.603-8.03 8.03-8.03h55.99c4.143 0 7.5-3.358 7.5-7.5s-3.357-7.5-7.5-7.5h-48.49v-274.839c.606-6.454 4.136-9.981 10.59-10.58 5.824 0 10.562 4.73 10.579 10.55 0 .009-.001.018-.001.028v90.405c0 4.142 3.357 7.5 7.5 7.5s7.5-3.358 7.5-7.5l.003-144.652c.603-6.448 4.13-9.975 10.58-10.58 5.831 0 10.575 4.742 10.58 10.572 0 .004-.001.008-.001.012v144.648c0 4.142 3.357 7.5 7.5 7.5s7.5-3.358 7.5-7.5l.001-162.732c.603-6.448 4.13-9.975 10.58-10.58 5.834 0 10.58 4.746 10.58 10.58l.001 162.732c0 4.142 3.357 7.5 7.5 7.5s7.5-3.358 7.5-7.5v-126.568c0-5.336 5.373-10.585 10.579-10.585 5.834 0 10.58 4.75 10.58 10.59v19.81c0 4.142 3.357 7.5 7.5 7.5s7.5-3.358 7.5-7.5v-19.81c0-14.11-11.476-25.59-25.58-25.59-3.713 0-7.303.785-10.58 2.275v-12.855c0-14.105-11.476-25.58-25.58-25.58-13.559 1.136-21.925 8.002-25.099 20.598-15.398-7.416-36.642 5.386-36.642 23.063v30.961c-15.342-6.997-36.17 5.851-36.17 23.289v276.1c-9.027 3.119-15.63 10.99-15.53 21.769.13 14.095 8.996 21.711 23.03 23.03h5.82v85.688c0 4.142 3.357 7.5 7.5 7.5s7.5-3.358 7.5-7.5v-85.688h102.875v85.688c0 4.142 3.357 7.5 7.5 7.5s7.5-3.358 7.5-7.5v-85.688h5.955c12.698 0 22.81-10.333 23.029-23.03.19-11.03-4.81-19.78-15.529-21.759v-58.867c.43-4.527 7.416-13.874 13.589-22.132 15.857-21.215 25.566-42.971 34.678-67.561 7.513-20.273 14.609-39.422 25.392-61.96 2.808-5.881 2.342-12.564-1.246-17.878z"/></g></svg>
