<svg width="470.00000000000006" height="400" xmlns="http://www.w3.org/2000/svg" xmlns:xlink="http://www.w3.org/1999/xlink" style="vector-effect: non-scaling-stroke;" stroke="null">
 <defs style="vector-effect: non-scaling-stroke;" stroke="null">
  <linearGradient style="vector-effect: non-scaling-stroke;" stroke="null" y2="0" x2="0.5" y1="1" x1="0.5" id="svg_25">
   <stop style="vector-effect: non-scaling-stroke;" stroke="null" offset="0" stop-color="#3267E3"/>
   <stop style="vector-effect: non-scaling-stroke;" stroke="null" offset="1" stop-color="#B000DC"/>
  </linearGradient>
 </defs>
  <g stroke="null" id="svg_26">
   <path stroke="null" id="svg_10" fill="white" fill-rule="evenodd" d="m10.618337,295.105048l86.805066,0l0,-98.252456l61.907546,0c34.327391,0 36.763687,28.011249 39.062033,54.844996c1.248941,14.595607 2.761464,29.203532 7.101964,43.40746l86.807529,0c-7.89025,-13.023962 -8.286856,-46.563067 -9.466822,-60.372852c-3.160534,-35.115677 -17.758605,-61.158674 -41.436745,-70.233816c17.692093,-6.545237 29.580431,-20.677726 36.118278,-37.374609c9.442188,-24.101844 21.975935,-50.221206 53.398984,-50.221206c35.903963,0 43.794212,31.171783 45.375711,41.429354l84.437744,0c-7.49857,-70.627959 -50.110354,-111.269028 -127.451061,-111.665634c-64.198502,0 -111.562172,32.162068 -131.875316,84.824497c-10.168889,26.363239 1.500207,44.991422 -42.86305,44.991422l-61.116797,0l0,-56.029889l56.382154,0c21.10882,0 32.772989,4.163135 38.460965,11.770095c10.21323,-28.725633 27.64174,-51.45783 50.314815,-67.351646c-14.740948,-7.641447 -32.344359,-11.494195 -50.896176,-11.494195l-181.066824,0l0,281.728479z"/>
   <path stroke="null" id="svg_12" fill="white" d="m10.618337,310.984084l451.293717,0l0,2.500345l-451.293717,0l0,-2.500345l0,0z"/>
   <path stroke="null" id="svg_14" fill="white" d="m458.640667,390.453163l-35.881792,0l0,0q-1.680034,0 -2.832903,-1.08143l0,0l0,0q-1.155332,-1.08143 -1.155332,-2.653075l0,0l0,-57.207391l0,0q0,-3.044755 3.042291,-3.044755l0,0l0.945943,0l0,0q3.148217,0 3.148217,3.044755l0,0l0,54.748924l32.733575,0l0,0q3.254143,0 3.254143,2.850146l0,0l0,0.492679l0,0q0,2.850146 -3.254143,2.850146l0,0z"/>
   <path stroke="null" id="svg_15" fill="white" d="m372.732277,333.836987l-12.277554,29.979501l24.446719,0l-12.169165,-29.979501zm21.926667,53.963101l-7.343376,-18.086236l-29.272507,0l-7.34584,18.086236l0,0q-1.258794,3.044755 -4.091697,3.044755l0,0l0,0q-0.94348,0 -1.992885,-0.39168l0,0l0,0q-1.049406,-0.394143 -1.574109,-0.83509l0,0l0,0q-0.524703,-0.443411 -0.418777,-0.739018l0,0l24.865496,-60.15361l0,0q1.049406,-2.456003 5.350491,-2.456003l0,0l0,0q4.301085,0 5.350491,2.456003l0,0l24.867959,60.15361l0,0q0.103463,0.295607 -0.472972,0.739018l0,0l0,0q-0.576434,0.440947 -1.574109,0.83509l0,0l0,0q-0.997674,0.39168 -2.044617,0.39168l0,0l0,0q-3.044755,0 -4.303549,-3.044755l0,0z"/>
   <path stroke="null" id="svg_16" fill="white" d="m304.762319,391.633128l0,0l0,0q-14.898605,0 -24.289061,-9.141654l0,0l0,0q-9.390457,-9.141654 -9.390457,-23.687993l0,0l0,0q0,-14.644875 9.496383,-23.885065l0,0l0,0q9.493919,-9.24019 24.49845,-9.24019l0,0l0,0q10.912834,0 18.098553,4.473523l0,0l0,0q7.188183,4.471059 7.188183,8.109492l0,0l0,0q0,1.571645 -0.997674,2.603807l0,0l0,0q-0.997674,1.032162 -2.044617,1.327769l0,0l0,0q-1.049406,0.293144 -1.155332,0.098536l0,0l0,0q-3.148217,-5.111542 -9.023411,-7.961688l0,0l0,0q-5.875194,-2.85261 -12.275091,-2.85261l0,0l0,0q-11.646925,0 -19.044496,7.570009l0,0l0,0q-7.395108,7.567545 -7.395108,19.559346l0,0l0,0q0,11.893265 7.552765,19.559346l0,0l0,0q7.555228,7.668544 19.096228,7.668544l0,0l0,0q7.555228,0 13.588079,-3.392093l0,0l0,0q6.032851,-3.392093 8.341051,-9.092386l0,0l0,0q0.103463,-0.295607 1.207063,0l0,0l0,0q1.101137,0.295607 2.254005,1.327769l0,0l0,0q1.155332,1.032162 1.155332,2.603807l0,0l0,0q0,4.030112 -7.555228,9.190922l0,0l0,0q-7.552765,5.16081 -19.305616,5.16081z"/>
   <path stroke="null" id="svg_17" fill="white" d="m247.705196,390.844842l-0.94348,0l0,0q-3.042291,0 -3.042291,-3.044755l0,0l0,-58.288821l0,0q0,-3.044755 3.042291,-3.044755l0,0l0.94348,0l0,0q3.148217,0 3.148217,3.044755l0,0l0,58.288821l0,0q0,3.044755 -3.148217,3.044755l0,0z"/>
   <path stroke="null" id="svg_18" fill="white" d="m185.822284,390.453163l-15.52677,0l0,0q-1.680034,0 -2.832903,-1.08143l0,0l0,0q-1.155332,-1.08143 -1.155332,-2.653075l0,0l0,-56.125961l0,0q0,-1.571645 1.155332,-2.653075l0,0l0,0q1.152868,-1.08143 2.832903,-1.08143l0,0l16.051473,0l0,0q17.522119,0 27.333816,8.355831l0,0l0,0q9.809234,8.353368 9.809234,23.29385l0,0l0,0q0,15.039018 -9.966891,23.490922l0,0l0,0q-9.969354,8.454367 -27.700862,8.454367l0,0zm-12.378553,-57.697606l0,51.800242l12.799793,0l0,0q14.267976,0 22.084324,-6.781723l0,0l0,0q7.816348,-6.781723 7.816348,-19.06913l0,0l0,0q0,-12.188872 -7.919811,-19.06913l0,0l0,0q-7.922274,-6.880258 -21.877399,-6.880258l0,0l-12.903256,0z"/>
   <path stroke="null" id="svg_19" fill="white" d="m145.240336,390.453163l-41.234746,0l0,0q-1.677571,0 -2.832903,-1.08143l0,0l0,0q-1.155332,-1.08143 -1.155332,-2.653075l0,0l0,-56.125961l0,0q0,-1.571645 1.155332,-2.653075l0,0l0,0q1.155332,-1.08143 2.832903,-1.08143l0,0l40.604118,0l0,0q3.25168,0 3.25168,2.751611l0,0l0,0.591214l0,0q0,2.751611 -3.25168,2.751611l0,0l-37.455901,0l0,21.919277l30.006598,0l0,0q3.25168,0 3.25168,2.751611l0,0l0,0.394143l0,0q0,2.751611 -3.25168,2.751611l0,0l-30.006598,0l0,23.589458l38.086529,0l0,0q3.25168,0 3.25168,2.653075l0,0l0,0.591214l0,0q0,2.850146 -3.25168,2.850146l0,0z"/>
   <path stroke="null" id="svg_20" fill="white" d="m20.299474,390.844842l-1.049406,0l0,0q-2.832903,0 -2.832903,-3.044755l0,0l0,-57.108855l0,0q0,-1.867252 1.416451,-3.047218l0,0l0,0q1.416451,-1.177502 3.724651,-1.177502l0,0l1.677571,0l0,0q2.520052,0 3.67292,1.078966l0,0l0,0q1.155332,1.08143 2.517588,3.931576l0,0l17.837433,37.056831l17.940896,-37.056831l0,0q1.36472,-2.850146 2.517588,-3.931576l0,0l0,0q1.155332,-1.078966 3.67292,-1.078966l0,0l1.468183,0l0,0q2.3082,0 3.724651,1.177502l0,0l0,0q1.416451,1.179966 1.416451,3.047218l0,0l0,57.108855l0,0q0,3.044755 -3.042291,3.044755l0,0l-0.840017,0l0,0q-2.936365,0 -2.936365,-3.044755l0,0l0,-53.667494l-17.837433,36.268545l0,0q-1.992885,4.227184 -6.190508,4.227184l0,0l0,0q-2.517588,0 -3.828114,-1.032162l0,0l0,0q-1.312989,-1.032162 -2.362395,-3.195022l0,0l-17.731508,-36.268545l0,53.667494l0,0q0,3.044755 -2.936365,3.044755l0,0z"/>
   <path stroke="null" id="svg_21" fill="url(#svg_25)" d="m258.735572,164.939327q5.926925,-3.924186 10.469423,-8.774608q4.542498,-4.850422 9.469285,-12.009044q-1.002601,21.091576 2.000276,36.950905c3.002877,15.856865 10.469423,33.716469 24.249647,42.954195c13.780224,9.237726 34.332317,9.777209 46.804479,3.618725c12.469699,-6.158484 19.091301,-18.475452 22.402102,-28.789682q3.308338,-10.316693 3.539897,-14.088148l85.142275,0q0.229096,21.938984 -8.084858,41.261844c-8.313954,19.32286 -19.707149,37.258829 -42.569906,53.078743c-22.862756,15.819914 -50.11528,22.170543 -71.246271,22.515418q-21.130991,0.347339 -35.911353,-2.19242q-4.155745,-6.505823 -5.466271,-8.892851c-1.308062,-2.384565 -2.3082,-5.463807 -3.155607,-9.158898c-0.847407,-3.69509 -1.539621,-7.46901 -2.3082,-13.935418c-0.771042,-6.466408 -1.694815,-20.630922 -2.002739,-25.557709c-0.307924,-4.926787 -0.692214,-13.777761 -3.002877,-24.018088c-2.3082,-10.237864 -4.07938,-17.164927 -9.774746,-28.713316q-5.69783,-11.545926 -20.554557,-24.249647z"/>
  </g>
</svg>
