<svg width="1267" height="330" xmlns="http://www.w3.org/2000/svg" xmlns:xlink="http://www.w3.org/1999/xlink" style="vector-effect: non-scaling-stroke;" stroke="null">
 <defs style="vector-effect: non-scaling-stroke;" stroke="null">
  <linearGradient style="vector-effect: non-scaling-stroke;" stroke="null" y2="0" x2="0.5" y1="1" x1="0.5" id="svg_25">
   <stop style="vector-effect: non-scaling-stroke;" stroke="null" offset="0" stop-color="#3267E3"/>
   <stop style="vector-effect: non-scaling-stroke;" stroke="null" offset="1" stop-color="#B000DC"/>
  </linearGradient>
 </defs>

 <g stroke="null">
  <path stroke="null" id="svg_10" fill="rgb(41,41,41)" fill-rule="evenodd" d="m10.618337,295.105048l86.805066,0l0,-98.252456l61.907546,0c34.327391,0 36.763687,28.011249 39.062033,54.844996c1.248941,14.595607 2.761464,29.203532 7.101964,43.40746l86.807529,0c-7.89025,-13.023962 -8.286856,-46.563067 -9.466822,-60.372852c-3.160534,-35.115677 -17.758605,-61.158674 -41.436745,-70.233816c17.692093,-6.545237 29.580431,-20.677726 36.118278,-37.374609c9.442188,-24.101844 21.975935,-50.221206 53.398984,-50.221206c35.903963,0 43.794212,31.171783 45.375711,41.429354l84.437744,0c-7.49857,-70.627959 -50.110354,-111.269028 -127.451061,-111.665634c-64.198502,0 -111.562172,32.162068 -131.875316,84.824497c-10.168889,26.363239 1.500207,44.991422 -42.86305,44.991422l-61.116797,0l0,-56.029889l56.382154,0c21.10882,0 32.772989,4.163135 38.460965,11.770095c10.21323,-28.725633 27.64174,-51.45783 50.314815,-67.351646c-14.740948,-7.641447 -32.344359,-11.494195 -50.896176,-11.494195l-181.066824,0l0,281.728479z"/>
  <path stroke="null" id="svg_12" fill="rgb(41,41,41)" d="m10.618337,310.984084l1244.80447,0l0,2.500345l-1244.80447,0l0,-2.500345l0,0z"/>
  <path stroke="null" id="svg_21" fill="url(#svg_25)" d="m258.735572,164.939327q5.926925,-3.924186 10.469423,-8.774608q4.542498,-4.850422 9.469285,-12.009044q-1.002601,21.091576 2.000276,36.950905c3.002877,15.856865 10.469423,33.716469 24.249647,42.954195c13.780224,9.237726 34.332317,9.777209 46.804479,3.618725c12.469699,-6.158484 19.091301,-18.475452 22.402102,-28.789682q3.308338,-10.316693 3.539897,-14.088148l85.142275,0q0.229096,21.938984 -8.084858,41.261844c-8.313954,19.32286 -19.707149,37.258829 -42.569906,53.078743c-22.862756,15.819914 -50.11528,22.170543 -71.246271,22.515418q-21.130991,0.347339 -35.911353,-2.19242q-4.155745,-6.505823 -5.466271,-8.892851c-1.308062,-2.384565 -2.3082,-5.463807 -3.155607,-9.158898c-0.847407,-3.69509 -1.539621,-7.46901 -2.3082,-13.935418c-0.771042,-6.466408 -1.694815,-20.630922 -2.002739,-25.557709c-0.307924,-4.926787 -0.692214,-13.777761 -3.002877,-24.018088c-2.3082,-10.237864 -4.07938,-17.164927 -9.774746,-28.713316q-5.69783,-11.545926 -20.554557,-24.249647z"/>
   <path stroke="null" id="svg_14" fill="rgb(41,41,41)" d="m1234.630582,294.343668l-60.108831,0l0,0q-2.814378,0 -4.745651,-1.811601l0,0l0,0q-1.9354,-1.811601 -1.9354,-4.444406l0,0l0,-95.833268l0,0q0,-5.100543 5.096417,-5.100543l0,0l1.584635,0l0,0q5.273863,0 5.273863,5.100543l0,0l0,91.714868l54.834968,0l0,0q5.451309,0 5.451309,4.774538l0,0l0,0.825331l0,0q0,4.774538 -5.451309,4.774538l0,0z"/>
   <path stroke="null" id="svg_15" fill="rgb(41,41,41)" d="m1090.717677,199.500797l-20.56724,50.22137l40.952907,0l-20.385667,-50.22137zm36.73134,90.398466l-12.301553,-30.297888l-49.03702,0l-12.30568,30.297888l0,0q-2.10872,5.100543 -6.854371,5.100543l0,0l0,0q-1.580508,0 -3.338462,-0.656138l0,0l0,0q-1.757954,-0.660265 -2.636931,-1.398935l0,0l0,0q-0.878977,-0.742798 -0.701531,-1.237996l0,0l41.654438,-100.768745l0,0q1.757954,-4.114273 8.963091,-4.114273l0,0l0,0q7.205137,0 8.963091,4.114273l0,0l41.658564,100.768745l0,0q0.173319,0.495198 -0.792317,1.237996l0,0l0,0q-0.965637,0.738671 -2.636931,1.398935l0,0l0,0q-1.671295,0.656138 -3.425122,0.656138l0,0l0,0q-5.100543,0 -7.209263,-5.100543l0,0z"/>
   <path stroke="null" id="svg_16" fill="rgb(41,41,41)" d="m976.855062,296.320335l0,0l0,0q-24.957999,0 -40.688801,-15.31401l0,0l0,0q-15.730802,-15.31401 -15.730802,-39.681897l0,0l0,0q0,-24.532953 15.908248,-40.01203l0,0l0,0q15.904122,-15.479076 41.039566,-15.479076l0,0l0,0q18.281074,0 30.318521,7.494002l0,0l0,0q12.041574,7.489876 12.041574,13.584942l0,0l0,0q0,2.632805 -1.671295,4.361872l0,0l0,0q-1.671295,1.729068 -3.425122,2.224266l0,0l0,0q-1.757954,0.491072 -1.9354,0.165066l0,0l0,0q-5.273863,-8.562805 -15.115931,-13.337343l0,0l0,0q-9.842068,-4.778664 -20.563113,-4.778664l0,0l0,0q-19.510816,0 -31.903156,12.681205l0,0l0,0q-12.388213,12.677079 -12.388213,32.765627l0,0l0,0q0,19.923482 12.652319,32.765627l0,0l0,0q12.656445,12.846271 31.989816,12.846271l0,0l0,0q12.656445,0 22.762619,-5.682401l0,0l0,0q10.106174,-5.682401 13.972848,-15.231477l0,0l0,0q0.173319,-0.495198 2.02206,0l0,0l0,0q1.844614,0.495198 3.775888,2.224266l0,0l0,0q1.9354,1.729068 1.9354,4.361872l0,0l0,0q0,6.751205 -12.656445,15.396543l0,0l0,0q-12.652319,8.645339 -32.340581,8.645339z"/>
   <path stroke="null" id="svg_17" fill="rgb(41,41,41)" d="m881.27352,294.999806l-1.580508,0l0,0q-5.096417,0 -5.096417,-5.100543l0,0l0,-97.644869l0,0q0,-5.100543 5.096417,-5.100543l0,0l1.580508,0l0,0q5.273863,0 5.273863,5.100543l0,0l0,97.644869l0,0q0,5.100543 -5.273863,5.100543l0,0z"/>
   <path stroke="null" id="svg_18" fill="rgb(41,41,41)" d="m777.607864,294.343668l-26.010295,0l0,0q-2.814378,0 -4.745651,-1.811601l0,0l0,0q-1.9354,-1.811601 -1.9354,-4.444406l0,0l0,-94.021667l0,0q0,-2.632805 1.9354,-4.444406l0,0l0,0q1.931274,-1.811601 4.745651,-1.811601l0,0l26.889272,0l0,0q29.352884,0 45.789344,13.997608l0,0l0,0q16.432333,13.993481 16.432333,39.021633l0,0l0,0q0,25.193218 -16.696439,39.351765l0,0l0,0q-16.700566,14.162674 -46.404216,14.162674l0,0zm-20.736432,-96.654472l0,86.775264l21.44209,0l0,0q23.901575,0 36.995446,-11.360676l0,0l0,0q13.093871,-11.360676 13.093871,-31.944423l0,0l0,0q0,-20.41868 -13.26719,-31.944423l0,0l0,0q-13.271317,-11.525742 -36.648807,-11.525742l0,0l-21.61541,0z"/>
   <path stroke="null" id="svg_19" fill="rgb(41,41,41)" d="m709.625379,294.343668l-69.076048,0l0,0q-2.810251,0 -4.745651,-1.811601l0,0l0,0q-1.9354,-1.811601 -1.9354,-4.444406l0,0l0,-94.021667l0,0q0,-2.632805 1.9354,-4.444406l0,0l0,0q1.9354,-1.811601 4.745651,-1.811601l0,0l68.019625,0l0,0q5.447182,0 5.447182,4.609472l0,0l0,0.990397l0,0q0,4.609472 -5.447182,4.609472l0,0l-62.745762,0l0,36.71896l50.266763,0l0,0q5.447182,0 5.447182,4.609472l0,0l0,0.660265l0,0q0,4.609472 -5.447182,4.609472l0,0l-50.266763,0l0,39.516831l63.802186,0l0,0q5.447182,0 5.447182,4.444406l0,0l0,0.990397l0,0q0,4.774538 -5.447182,4.774538l0,0z"/>
   <path stroke="null" id="svg_20" fill="rgb(41,41,41)" d="m500.325654,294.999806l-1.757954,0l0,0q-4.745651,0 -4.745651,-5.100543l0,0l0,-95.668202l0,0q0,-3.128003 2.372826,-5.10467l0,0l0,0q2.372826,-1.97254 6.2395,-1.97254l0,0l2.810251,0l0,0q4.221566,0 6.15284,1.807474l0,0l0,0q1.9354,1.811601 4.21744,6.586139l0,0l29.881096,62.077244l30.054415,-62.077244l0,0q2.286166,-4.774538 4.21744,-6.586139l0,0l0,0q1.9354,-1.807474 6.15284,-1.807474l0,0l2.459485,0l0,0q3.866674,0 6.2395,1.97254l0,0l0,0q2.372826,1.976667 2.372826,5.10467l0,0l0,95.668202l0,0q0,5.100543 -5.096417,5.100543l0,0l-1.407189,0l0,0q-4.918971,0 -4.918971,-5.100543l0,0l0,-89.903267l-29.881096,60.756715l0,0q-3.338462,7.081337 -10.37028,7.081337l0,0l0,0q-4.21744,0 -6.412819,-1.729068l0,0l0,0q-2.199506,-1.729068 -3.95746,-5.352269l0,0l-29.70365,-60.756715l0,89.903267l0,0q0,5.100543 -4.918971,5.100543l0,0z"/>
  </g>
</svg>
